HIERARCHY
ROOT Hips
{
 OFFSET 0.000000 0.000000 0.000000
 CHANNELS 6 Xposition Yposition Zposition Yrotation Xrotation Zrotation
 JOINT Chest
 {
  OFFSET 0.000000 9.588913 -0.003946
  CHANNELS 3 Yrotation Xrotation Zrotation
  JOINT Chest2
  {
   OFFSET 0.000000 9.541882 0.008053
   CHANNELS 3 Yrotation Xrotation Zrotation
   JOINT Chest3
   {
    OFFSET 0.000000 9.501360 0.000000
    CHANNELS 3 Yrotation Xrotation Zrotation
    JOINT Chest4
    {
     OFFSET 0.000000 9.491660 0.000000
     CHANNELS 3 Yrotation Xrotation Zrotation
     JOINT Neck
     {
      OFFSET 0.000000 14.331917 0.000000
      CHANNELS 3 Yrotation Xrotation Zrotation
      JOINT Head
      {
       OFFSET 0.000000 8.884799 0.017034
       CHANNELS 3 Yrotation Xrotation Zrotation
       End Site
       {
        OFFSET 0.000000 16.896195 0.008993
       }
      }
     }
     JOINT RightCollar
     {
      OFFSET -2.923010 9.499495 0.000000
      CHANNELS 3 Yrotation Xrotation Zrotation
      JOINT RightShoulder
      {
       OFFSET -13.795216 0.000000 0.000000
       CHANNELS 3 Yrotation Xrotation Zrotation
       JOINT RightElbow
       {
        OFFSET -30.272209 0.000000 0.000000
        CHANNELS 3 Yrotation Xrotation Zrotation
        JOINT RightWrist
        {
         OFFSET -24.478199 0.000000 0.000000
         CHANNELS 3 Yrotation Xrotation Zrotation
         End Site
         {
          OFFSET -18.090752 0.000000 0.000000
         }
        }
       }
      }
     }
     JOINT LeftCollar
     {
      OFFSET 2.923010 9.499495 0.000000
      CHANNELS 3 Yrotation Xrotation Zrotation
      JOINT LeftShoulder
      {
       OFFSET 13.795216 0.000000 0.000000
       CHANNELS 3 Yrotation Xrotation Zrotation
       JOINT LeftElbow
       {
        OFFSET 30.272209 0.000000 0.000000
        CHANNELS 3 Yrotation Xrotation Zrotation
        JOINT LeftWrist
        {
         OFFSET 24.478199 0.000000 0.000000
         CHANNELS 3 Yrotation Xrotation Zrotation
         End Site
         {
          OFFSET 18.090752 0.000000 0.000000
         }
        }
       }
      }
     }
    }
   }
  }
 }
 JOINT RightHip
 {
  OFFSET -7.826875 0.019532 0.001973
  CHANNELS 3 Yrotation Xrotation Zrotation
  JOINT RightKnee
  {
   OFFSET 0.000000 -40.546152 -0.001885
   CHANNELS 3 Yrotation Xrotation Zrotation
   JOINT RightAnkle
   {
    OFFSET 0.000000 -39.417092 -0.003189
    CHANNELS 3 Yrotation Xrotation Zrotation
    JOINT RightToe
    {
     OFFSET 0.000000 -7.579396 17.243563
     CHANNELS 3 Yrotation Xrotation Zrotation
     End Site
     {
      OFFSET 0.000000 -1.500329 6.694466
     }
    }
   }
  }
 }
 JOINT LeftHip
 {
  OFFSET 7.826875 0.019532 0.001973
  CHANNELS 3 Yrotation Xrotation Zrotation
  JOINT LeftKnee
  {
   OFFSET 0.000000 -40.546152 -0.001885
   CHANNELS 3 Yrotation Xrotation Zrotation
   JOINT LeftAnkle
   {
    OFFSET 0.000000 -39.417092 -0.003189
    CHANNELS 3 Yrotation Xrotation Zrotation
    JOINT LeftToe
    {
     OFFSET 0.000000 -7.579396 17.243563
     CHANNELS 3 Yrotation Xrotation Zrotation
     End Site
     {
      OFFSET 0.000000 -1.500329 6.694466
     }
    }
   }
  }
 }
}
MOTION
Frames: 5
Frame Time: 0.008333
0.000000 87.345680 0.000000 0.000000 -5.767889 0.000000 0.000000 11.653876 0.000000 0.000000 -5.885988 0.000000 0.000000 -0.000000 0.000000 0.000000 -0.000000 0.000000 0.000000 12.528808 0.000000 0.000000 0.711711 0.000000 0.000000 -0.000000 0.000000 0.000000 -0.000000 0.000000 2.309063 -0.000000 0.000000 -2.309063 -0.000000 -0.000000 0.000000 -0.000000 0.000000 0.000000 0.000000 0.000000 -2.309063 0.000000 0.000000 2.309063 -0.000000 0.000000 0.000000 8.520374 0.000000 0.000000 1.905768 0.000000 -0.000000 -4.658254 0.000000 0.000000 -0.000000 0.000000 0.000000 8.520374 0.000000 0.000000 1.905768 0.000000 -0.000000 -4.658254 0.000000 0.000000 -0.000000 0.000000
-5.697262 54.460172 -31.970300 52.878799 -24.328437 -0.219981 -3.868819 10.526519 -0.348831 -2.216847 6.013319 -0.043766 -2.775623 7.516031 -0.091437 -2.216847 6.013319 -0.043766 0.134458 25.668771 -1.912351 0.582622 2.227653 -2.114104 4.995985 -3.186584 -3.042096 10.800803 -25.351836 57.210724 57.537651 -0.202136 24.590668 10.113452 -4.412689 -15.379007 0.950547 -2.599893 -1.141851 1.226549 -17.707653 -83.673233 -73.485382 -6.020565 -42.514215 14.818142 4.590129 -0.203078 -4.535567 -56.765916 -16.225282 134.714863 87.213926 127.182285 2.230428 -10.607102 8.392360 0.020741 -0.101785 0.006059 23.248614 -46.607491 -39.920371 76.966352 74.628525 100.499398 0.324660 -10.333837 -6.078236 0.040629 0.230679 0.013459
-5.697789 54.460054 -31.969600 52.882312 -24.326087 -0.218633 -3.869175 10.525668 -0.352765 -2.215287 6.013249 -0.044154 -2.773677 7.515941 -0.091897 -2.215287 6.013249 -0.044154 0.131162 25.673040 -1.908258 0.578097 2.232826 -2.108918 4.997909 -3.184631 -3.039554 10.796279 -25.367954 57.218429 57.533754 -0.199583 24.587924 10.115993 -4.405032 -15.380644 0.934772 -2.600007 -1.135590 1.242599 -17.703719 -83.673171 -73.489663 -6.016319 -42.522599 14.815980 4.590685 -0.201890 -4.534818 -56.769084 -16.227716 134.780187 87.213600 127.245323 2.230078 -10.608235 8.395037 0.019100 -0.102777 0.005982 23.250141 -46.606611 -39.923608 76.957279 74.628921 100.491690 0.322622 -10.336499 -6.078101 0.042131 0.232015 0.014591
-5.698049 54.460101 -31.968994 52.884536 -24.324104 -0.214362 -3.866608 10.524736 -0.357165 -2.212944 6.013165 -0.044612 -2.770751 7.515835 -0.092431 -2.212944 6.013165 -0.044612 0.125469 25.677398 -1.901708 0.570398 2.238014 -2.100499 4.998269 -3.180203 -3.034336 10.787150 -25.387257 57.225099 57.530123 -0.194773 24.583382 10.115680 -4.402674 -15.372646 0.916262 -2.599628 -1.127726 1.253484 -17.700134 -83.675972 -73.491955 -6.012408 -42.526955 14.813416 4.591653 -0.199921 -4.529556 -56.772532 -16.234049 134.823944 87.211867 127.285741 2.228784 -10.608522 8.397735 0.018013 -0.104263 0.006285 23.252809 -46.602911 -39.927418 76.940534 74.627826 100.474845 0.319695 -10.341939 -6.076502 0.043354 0.235705 0.015066
-5.698333 54.460247 -31.968478 52.886662 -24.321074 -0.209016 -3.862916 10.524356 -0.359753 -2.210357 6.012906 -0.044953 -2.767518 7.515510 -0.092813 -2.210357 6.012906 -0.044953 0.117177 25.681402 -1.893903 0.559582 2.242701 -2.090113 4.994819 -3.174811 -3.031001 10.775874 -25.409660 57.232877 57.527397 -0.189606 24.580002 10.113229 -4.403380 -15.365761 0.894439 -2.600510 -1.120275 1.267641 -17.697771 -83.682396 -73.490286 -6.008519 -42.530755 14.811406 4.592998 -0.197779 -4.522175 -56.776878 -16.244276 134.835665 87.208873 127.295733 2.228786 -10.609469 8.398547 0.017739 -0.104945 0.006773 23.255496 -46.600030 -39.931782 76.922286 74.625728 100.456023 0.314894 -10.347588 -6.076713 0.045792 0.239582 0.016774
